<svg id="svg" version="1.1" xmlns="http://www.w3.org/2000/svg" xmlns:xlink="http://www.w3.org/1999/xlink" width="400" height="400" viewBox="0, 0, 400,400"><g id="svgg"><path id="path0" d="M62.349 103.461 C 61.781 104.146,61.255 184.470,61.799 187.487 C 62.288 190.196,58.893 190.000,105.352 190.000 C 141.063 190.000,147.565 189.914,148.224 189.433 C 148.967 188.890,149.009 188.100,149.200 171.049 C 149.393 153.824,149.426 153.214,150.200 152.630 C 151.426 151.704,178.046 151.703,178.971 152.629 C 179.609 153.267,179.979 232.747,179.354 235.075 C 178.952 236.575,177.262 236.800,166.402 236.800 C 156.953 236.800,156.071 236.859,155.462 237.531 C 154.478 238.619,154.440 321.708,155.423 323.111 L 156.045 324.000 198.223 324.000 C 239.867 324.000,240.410 323.990,241.200 323.200 C 242.340 322.060,242.476 238.494,241.340 237.549 C 240.831 237.125,238.218 236.954,229.904 236.800 C 219.173 236.601,219.125 236.596,218.364 235.656 C 217.284 234.321,217.153 153.704,218.229 152.629 C 218.775 152.082,220.622 152.000,232.400 152.000 L 245.942 152.000 246.771 153.054 C 247.580 154.083,247.600 154.513,247.600 171.254 C 247.600 187.867,247.625 188.425,248.400 189.200 C 249.322 190.122,332.325 190.497,334.026 189.586 C 334.985 189.073,335.273 104.233,334.320 103.280 C 333.953 102.913,323.863 102.800,291.343 102.800 L 248.845 102.800 248.223 103.689 C 247.683 104.460,247.600 106.851,247.600 121.707 L 247.600 138.836 246.618 139.818 L 245.636 140.800 226.832 140.800 C 208.651 140.800,208.014 140.826,207.614 141.574 C 207.336 142.094,207.200 157.293,207.200 187.994 C 207.200 238.229,207.340 235.454,204.752 236.357 C 202.439 237.163,193.450 236.930,192.344 236.035 L 191.400 235.271 191.200 188.535 C 191.090 162.831,190.854 141.575,190.676 141.300 C 190.425 140.911,186.009 140.800,170.830 140.800 C 151.781 140.800,151.283 140.780,150.270 139.983 L 149.232 139.167 149.116 121.551 C 149.005 104.646,148.969 103.912,148.224 103.367 C 146.946 102.434,63.126 102.526,62.349 103.461 M137.651 114.261 C 138.337 115.088,138.688 176.390,138.017 178.155 L 137.620 179.200 105.400 179.200 L 73.180 179.200 72.783 178.155 C 72.112 176.390,72.463 115.088,73.149 114.261 C 73.651 113.656,76.402 113.600,105.400 113.600 C 134.398 113.600,137.149 113.656,137.651 114.261 M323.371 114.229 C 324.014 114.871,324.386 176.928,323.757 178.567 C 323.438 179.400,259.710 179.550,258.880 178.720 C 258.055 177.895,258.200 115.057,259.029 114.229 C 259.987 113.270,322.413 113.270,323.371 114.229 M230.851 248.261 C 231.811 249.418,231.651 311.720,230.686 312.686 C 229.721 313.651,167.418 313.811,166.261 312.851 C 165.404 312.139,165.226 248.934,166.080 248.080 C 166.933 247.227,230.139 247.404,230.851 248.261 " stroke="none" fill="#6c56cf" fill-rule="evenodd"></path><path id="path1" d="M61.894 102.100 C 60.433 103.210,60.400 104.177,60.402 146.126 C 60.405 189.530,60.420 189.916,62.220 190.736 C 63.908 191.506,147.273 191.390,148.769 190.616 C 150.393 189.776,150.387 189.841,150.407 171.200 C 150.422 157.705,150.535 154.056,150.957 153.500 C 151.892 152.268,177.706 152.445,178.577 153.689 C 179.131 154.479,179.200 158.978,179.200 194.107 L 179.200 233.636 178.218 234.618 L 177.236 235.600 166.400 235.600 L 155.564 235.600 154.582 236.582 L 153.600 237.564 153.600 280.163 C 153.600 326.189,153.524 324.608,155.761 325.009 C 159.804 325.733,242.072 324.990,242.632 324.224 C 243.114 323.564,243.200 316.938,243.200 280.353 L 243.200 237.258 242.146 236.429 C 241.144 235.641,240.603 235.600,231.133 235.600 C 223.342 235.600,220.872 235.474,219.787 235.020 L 218.400 234.441 218.400 194.034 C 218.400 154.495,218.417 153.619,219.174 153.214 C 220.701 152.397,244.962 152.674,245.726 153.518 C 246.301 154.154,246.388 156.265,246.488 171.954 L 246.600 189.671 247.544 190.436 C 248.461 191.177,249.746 191.200,291.071 191.200 C 333.954 191.200,334.803 191.174,335.694 189.840 C 336.522 188.600,336.025 103.377,335.184 102.475 L 334.369 101.600 291.366 101.600 L 248.364 101.600 247.382 102.582 L 246.400 103.564 246.400 120.982 C 246.400 137.867,246.376 138.424,245.600 139.200 C 244.823 139.977,244.267 140.000,226.200 140.000 C 208.133 140.000,207.577 140.023,206.800 140.800 C 206.009 141.591,206.000 142.133,206.000 187.771 L 206.000 233.942 204.946 234.771 C 203.506 235.903,193.662 236.039,192.749 234.939 C 192.293 234.389,192.166 226.345,192.000 187.524 C 191.825 146.547,191.726 140.724,191.200 140.391 C 190.844 140.166,182.711 140.010,171.162 140.006 C 153.020 140.000,151.681 139.952,151.078 139.286 C 150.508 138.656,150.419 136.496,150.316 120.851 L 150.200 103.129 149.256 102.364 C 148.060 101.397,63.159 101.140,61.894 102.100 M148.224 103.367 C 148.969 103.912,149.005 104.646,149.116 121.551 L 149.232 139.167 150.270 139.983 C 151.283 140.780,151.781 140.800,170.830 140.800 C 186.009 140.800,190.425 140.911,190.676 141.300 C 190.854 141.575,191.090 162.831,191.200 188.535 L 191.400 235.271 192.344 236.035 C 193.450 236.930,202.439 237.163,204.752 236.357 C 207.340 235.454,207.200 238.229,207.200 187.994 C 207.200 157.293,207.336 142.094,207.614 141.574 C 208.014 140.826,208.651 140.800,226.832 140.800 L 245.636 140.800 246.618 139.818 L 247.600 138.836 247.600 121.707 C 247.600 106.851,247.683 104.460,248.223 103.689 L 248.845 102.800 291.343 102.800 C 323.863 102.800,333.953 102.913,334.320 103.280 C 335.273 104.233,334.985 189.073,334.026 189.586 C 332.325 190.497,249.322 190.122,248.400 189.200 C 247.625 188.425,247.600 187.867,247.600 171.254 C 247.600 154.513,247.580 154.083,246.771 153.054 L 245.942 152.000 232.400 152.000 C 220.622 152.000,218.775 152.082,218.229 152.629 C 217.153 153.704,217.284 234.321,218.364 235.656 C 219.125 236.596,219.173 236.601,229.904 236.800 C 238.218 236.954,240.831 237.125,241.340 237.549 C 242.476 238.494,242.340 322.060,241.200 323.200 C 240.410 323.990,239.867 324.000,198.223 324.000 L 156.045 324.000 155.423 323.111 C 154.440 321.708,154.478 238.619,155.462 237.531 C 156.071 236.859,156.953 236.800,166.402 236.800 C 177.262 236.800,178.952 236.575,179.354 235.075 C 179.979 232.747,179.609 153.267,178.971 152.629 C 178.046 151.703,151.426 151.704,150.200 152.630 C 149.426 153.214,149.393 153.824,149.200 171.049 C 149.009 188.100,148.967 188.890,148.224 189.433 C 147.565 189.914,141.063 190.000,105.352 190.000 C 58.893 190.000,62.288 190.196,61.799 187.487 C 61.255 184.470,61.781 104.146,62.349 103.461 C 63.126 102.526,146.946 102.434,148.224 103.367 M73.149 114.261 C 72.463 115.088,72.112 176.390,72.783 178.155 L 73.180 179.200 105.400 179.200 L 137.620 179.200 138.017 178.155 C 138.688 176.390,138.337 115.088,137.651 114.261 C 137.149 113.656,134.398 113.600,105.400 113.600 C 76.402 113.600,73.651 113.656,73.149 114.261 M259.029 114.229 C 258.200 115.057,258.055 177.895,258.880 178.720 C 259.710 179.550,323.438 179.400,323.757 178.567 C 324.386 176.928,324.014 114.871,323.371 114.229 C 322.413 113.270,259.987 113.270,259.029 114.229 M137.186 115.174 C 137.760 116.246,137.760 176.954,137.186 178.026 C 136.604 179.114,74.913 179.255,73.829 178.171 C 73.060 177.402,72.853 116.597,73.614 115.174 C 74.264 113.959,136.536 113.959,137.186 115.174 M322.711 115.023 L 323.600 115.645 323.600 146.600 L 323.600 177.555 322.711 178.177 C 321.352 179.129,260.781 179.123,259.829 178.171 C 258.842 177.185,258.874 116.223,259.862 115.131 C 260.807 114.087,321.226 113.983,322.711 115.023 M166.080 248.080 C 165.226 248.934,165.404 312.139,166.261 312.851 C 167.418 313.811,229.721 313.651,230.686 312.686 C 231.651 311.720,231.811 249.418,230.851 248.261 C 230.139 247.404,166.933 247.227,166.080 248.080 M229.824 248.568 C 230.734 249.233,231.283 309.950,230.393 311.613 C 229.874 312.582,167.442 312.882,166.480 311.920 C 165.975 311.415,165.751 251.171,166.247 249.321 C 166.376 248.838,166.779 248.364,167.141 248.268 C 169.140 247.737,229.079 248.023,229.824 248.568 " stroke="none" fill="#aca4e4" fill-rule="evenodd"></path><path id="path2" d="M0.000 200.000 L 0.000 400.000 200.000 400.000 L 400.000 400.000 400.000 200.000 L 400.000 0.000 200.000 0.000 L 0.000 0.000 0.000 200.000 M150.456 100.764 L 151.400 101.529 151.515 119.922 L 151.630 138.315 152.515 138.552 C 153.002 138.682,161.950 138.794,172.400 138.801 C 182.850 138.807,191.598 138.944,191.840 139.106 C 193.178 139.999,193.200 140.783,193.200 187.585 L 193.200 234.023 198.700 233.911 L 204.200 233.800 204.302 187.128 L 204.403 140.455 205.456 139.628 C 206.485 138.818,206.907 138.800,225.021 138.800 C 235.204 138.800,243.819 138.691,244.167 138.557 C 244.731 138.341,244.800 136.396,244.800 120.737 C 244.800 101.985,244.853 101.442,246.778 100.412 C 247.292 100.137,262.124 100.000,291.515 100.000 L 335.483 100.000 336.542 100.981 L 337.600 101.962 337.595 145.881 C 337.589 193.331,337.663 191.154,336.010 192.131 C 334.696 192.907,249.064 193.185,247.050 192.419 C 245.035 191.653,245.014 191.461,244.800 172.200 L 244.600 154.200 233.200 154.088 C 226.930 154.026,221.395 154.075,220.900 154.195 L 220.000 154.415 220.000 194.000 L 220.000 233.585 220.900 233.788 C 221.395 233.900,226.520 234.038,232.290 234.096 C 242.605 234.198,242.794 234.215,243.690 235.111 L 244.600 236.022 244.715 279.311 C 244.779 303.120,244.724 323.194,244.594 323.919 C 244.041 326.994,247.202 326.797,198.480 326.799 C 151.176 326.800,153.275 326.902,152.383 324.555 C 151.825 323.089,151.869 237.695,152.428 236.092 C 153.065 234.265,153.258 234.235,165.800 234.009 L 177.400 233.800 177.400 194.000 L 177.400 154.200 165.400 154.088 C 158.800 154.026,152.995 154.075,152.500 154.196 L 151.600 154.415 151.596 171.508 C 151.591 190.934,151.554 191.396,149.965 192.218 C 148.251 193.105,62.524 193.092,60.810 192.205 C 59.125 191.334,59.145 191.946,59.279 144.465 L 59.400 101.529 60.344 100.765 C 61.823 99.567,148.977 99.567,150.456 100.764 M74.700 116.432 C 74.043 116.815,74.000 118.699,74.000 147.020 L 74.000 177.200 105.400 177.200 L 136.800 177.200 136.800 146.600 L 136.800 116.000 106.100 116.012 C 85.993 116.020,75.158 116.165,74.700 116.432 M260.197 116.900 C 260.078 117.395,260.029 131.120,260.090 147.400 L 260.200 177.000 291.300 177.102 L 322.400 177.205 322.400 147.082 C 322.400 124.187,322.285 116.845,321.920 116.480 C 321.555 116.115,314.126 116.000,290.928 116.000 L 260.415 116.000 260.197 116.900 M167.646 249.744 C 167.318 250.140,167.223 258.603,167.297 280.844 L 167.400 311.400 198.400 311.400 L 229.400 311.400 229.510 281.200 C 229.571 264.590,229.522 250.595,229.403 250.100 L 229.185 249.200 198.641 249.200 C 173.377 249.200,168.020 249.294,167.646 249.744 " stroke="none" fill="#fcfcfc" fill-rule="evenodd"></path><path id="path3" d="M62.508 101.077 C 59.831 101.607,60.000 98.540,60.000 146.472 L 60.000 189.636 60.982 190.618 L 61.964 191.600 105.400 191.600 L 148.836 191.600 149.818 190.618 L 150.800 189.636 150.800 172.047 C 150.800 156.590,150.876 154.381,151.429 153.829 C 152.368 152.889,176.570 152.883,177.911 153.823 L 178.800 154.445 178.800 193.994 C 178.800 229.414,178.734 233.608,178.171 234.171 C 177.631 234.712,176.028 234.800,166.752 234.800 C 155.035 234.800,154.214 234.933,153.278 236.989 C 152.620 238.432,152.586 321.666,153.242 323.549 C 153.981 325.668,152.481 325.600,198.574 325.600 C 241.467 325.600,242.010 325.590,242.800 324.800 C 243.714 323.886,244.098 238.077,243.195 236.391 C 242.498 235.088,240.156 234.805,230.074 234.802 C 224.139 234.801,220.046 234.639,219.574 234.386 C 218.817 233.981,218.800 233.110,218.800 194.025 L 218.800 154.078 220.060 153.639 C 222.212 152.889,244.006 153.048,245.111 153.823 L 246.000 154.445 246.000 172.153 L 246.000 189.861 246.926 190.730 L 247.852 191.600 291.281 191.600 C 333.445 191.600,334.739 191.578,335.656 190.835 L 336.600 190.071 336.702 146.935 C 336.816 98.113,337.042 101.609,333.742 101.064 C 331.280 100.657,250.391 100.775,248.611 101.188 C 245.902 101.815,246.000 101.088,246.000 120.654 L 246.000 138.355 245.111 138.977 C 244.338 139.519,241.854 139.600,226.091 139.600 C 204.787 139.600,205.859 139.411,205.459 143.238 C 205.317 144.602,205.200 165.545,205.200 189.779 C 205.200 223.515,205.088 233.952,204.720 234.320 C 204.052 234.988,193.548 234.988,192.880 234.320 C 192.512 233.952,192.400 222.980,192.400 187.369 C 192.400 144.644,192.347 140.854,191.739 140.349 C 191.206 139.906,187.255 139.761,171.324 139.600 C 154.349 139.428,151.517 139.316,151.191 138.800 C 150.968 138.446,150.810 131.101,150.806 120.919 C 150.800 103.263,150.703 102.049,149.246 101.322 C 148.587 100.994,64.133 100.755,62.508 101.077 M149.256 102.364 L 150.200 103.129 150.316 120.851 C 150.419 136.496,150.508 138.656,151.078 139.286 C 151.681 139.952,153.020 140.000,171.162 140.006 C 182.711 140.010,190.844 140.166,191.200 140.391 C 191.726 140.724,191.825 146.547,192.000 187.524 C 192.166 226.345,192.293 234.389,192.749 234.939 C 193.662 236.039,203.506 235.903,204.946 234.771 L 206.000 233.942 206.000 187.771 C 206.000 142.133,206.009 141.591,206.800 140.800 C 207.577 140.023,208.133 140.000,226.200 140.000 C 244.267 140.000,244.823 139.977,245.600 139.200 C 246.376 138.424,246.400 137.867,246.400 120.982 L 246.400 103.564 247.382 102.582 L 248.364 101.600 291.366 101.600 L 334.369 101.600 335.184 102.475 C 336.025 103.377,336.522 188.600,335.694 189.840 C 334.803 191.174,333.954 191.200,291.071 191.200 C 249.746 191.200,248.461 191.177,247.544 190.436 L 246.600 189.671 246.488 171.954 C 246.388 156.265,246.301 154.154,245.726 153.518 C 244.962 152.674,220.701 152.397,219.174 153.214 C 218.417 153.619,218.400 154.495,218.400 194.034 L 218.400 234.441 219.787 235.020 C 220.872 235.474,223.342 235.600,231.133 235.600 C 240.603 235.600,241.144 235.641,242.146 236.429 L 243.200 237.258 243.200 280.353 C 243.200 316.938,243.114 323.564,242.632 324.224 C 242.072 324.990,159.804 325.733,155.761 325.009 C 153.524 324.608,153.600 326.189,153.600 280.163 L 153.600 237.564 154.582 236.582 L 155.564 235.600 166.400 235.600 L 177.236 235.600 178.218 234.618 L 179.200 233.636 179.200 194.107 C 179.200 158.978,179.131 154.479,178.577 153.689 C 177.706 152.445,151.892 152.268,150.957 153.500 C 150.535 154.056,150.422 157.705,150.407 171.200 C 150.387 189.841,150.393 189.776,148.769 190.616 C 147.273 191.390,63.908 191.506,62.220 190.736 C 60.420 189.916,60.405 189.530,60.402 146.126 C 60.400 104.177,60.433 103.210,61.894 102.100 C 63.159 101.140,148.060 101.397,149.256 102.364 M73.801 114.798 C 73.640 115.059,84.386 115.230,105.278 115.298 L 137.000 115.400 137.110 146.000 C 137.171 162.830,137.121 177.010,137.000 177.512 L 136.779 178.423 105.227 178.312 C 87.874 178.250,73.884 178.332,74.138 178.494 C 75.382 179.285,136.756 178.830,137.186 178.026 C 137.760 176.954,137.760 116.246,137.186 115.174 C 136.713 114.290,74.344 113.920,73.801 114.798 M259.862 115.131 C 258.874 116.223,258.842 177.185,259.829 178.171 C 260.781 179.123,321.352 179.129,322.711 178.177 L 323.600 177.555 323.600 146.600 L 323.600 115.645 322.711 115.023 C 321.226 113.983,260.807 114.087,259.862 115.131 M322.720 115.680 C 323.085 116.045,323.200 123.471,323.200 146.657 L 323.200 177.155 322.311 177.777 C 321.137 178.600,260.898 178.738,260.080 177.920 C 259.571 177.411,259.341 117.140,259.843 115.833 C 260.162 115.000,321.890 114.850,322.720 115.680 M73.390 146.600 C 73.390 163.760,73.440 170.722,73.500 162.070 C 73.560 153.419,73.560 139.379,73.500 130.870 C 73.440 122.362,73.390 129.440,73.390 146.600 M182.900 248.300 C 191.425 248.360,205.375 248.360,213.900 248.300 C 222.425 248.240,215.450 248.190,198.400 248.190 C 181.350 248.190,174.375 248.240,182.900 248.300 M166.252 249.300 C 165.752 251.164,165.972 311.412,166.480 311.920 C 167.442 312.882,229.874 312.582,230.393 311.613 C 230.960 310.554,230.772 249.411,230.200 248.840 C 229.933 248.573,229.800 259.000,229.800 280.120 L 229.800 311.800 199.000 311.910 C 182.060 311.971,167.795 311.922,167.300 311.803 L 166.400 311.585 166.400 280.766 C 166.400 260.287,166.539 249.688,166.814 249.174 C 167.048 248.737,167.068 248.400,166.861 248.400 C 166.659 248.400,166.385 248.805,166.252 249.300 " stroke="none" fill="#c0b8eb" fill-rule="evenodd"></path><path id="path4" d="M60.344 100.765 L 59.400 101.529 59.279 144.465 C 59.145 191.946,59.125 191.334,60.810 192.205 C 62.524 193.092,148.251 193.105,149.965 192.218 C 151.554 191.396,151.591 190.934,151.596 171.508 L 151.600 154.415 152.500 154.196 C 152.995 154.075,158.800 154.026,165.400 154.088 L 177.400 154.200 177.400 194.000 L 177.400 233.800 165.800 234.009 C 153.258 234.235,153.065 234.265,152.428 236.092 C 151.869 237.695,151.825 323.089,152.383 324.555 C 153.275 326.902,151.176 326.800,198.480 326.799 C 247.202 326.797,244.041 326.994,244.594 323.919 C 244.724 323.194,244.779 303.120,244.715 279.311 L 244.600 236.022 243.690 235.111 C 242.794 234.215,242.605 234.198,232.290 234.096 C 226.520 234.038,221.395 233.900,220.900 233.788 L 220.000 233.585 220.000 194.000 L 220.000 154.415 220.900 154.195 C 221.395 154.075,226.930 154.026,233.200 154.088 L 244.600 154.200 244.800 172.200 C 245.014 191.461,245.035 191.653,247.050 192.419 C 249.064 193.185,334.696 192.907,336.010 192.131 C 337.663 191.154,337.589 193.331,337.595 145.881 L 337.600 101.962 336.542 100.981 L 335.483 100.000 291.515 100.000 C 262.124 100.000,247.292 100.137,246.778 100.412 C 244.853 101.442,244.800 101.985,244.800 120.737 C 244.800 136.396,244.731 138.341,244.167 138.557 C 243.819 138.691,235.204 138.800,225.021 138.800 C 206.907 138.800,206.485 138.818,205.456 139.628 L 204.403 140.455 204.302 187.128 L 204.200 233.800 198.700 233.911 L 193.200 234.023 193.200 187.585 C 193.200 140.783,193.178 139.999,191.840 139.106 C 191.598 138.944,182.850 138.807,172.400 138.801 C 161.950 138.794,153.002 138.682,152.515 138.552 L 151.630 138.315 151.515 119.922 L 151.400 101.529 150.456 100.764 C 148.977 99.567,61.823 99.567,60.344 100.765 M149.246 101.322 C 150.703 102.049,150.800 103.263,150.806 120.919 C 150.810 131.101,150.968 138.446,151.191 138.800 C 151.517 139.316,154.349 139.428,171.324 139.600 C 187.255 139.761,191.206 139.906,191.739 140.349 C 192.347 140.854,192.400 144.644,192.400 187.369 C 192.400 222.980,192.512 233.952,192.880 234.320 C 193.548 234.988,204.052 234.988,204.720 234.320 C 205.088 233.952,205.200 223.515,205.200 189.779 C 205.200 165.545,205.317 144.602,205.459 143.238 C 205.859 139.411,204.787 139.600,226.091 139.600 C 241.854 139.600,244.338 139.519,245.111 138.977 L 246.000 138.355 246.000 120.654 C 246.000 101.088,245.902 101.815,248.611 101.188 C 250.391 100.775,331.280 100.657,333.742 101.064 C 337.042 101.609,336.816 98.113,336.702 146.935 L 336.600 190.071 335.656 190.835 C 334.739 191.578,333.445 191.600,291.281 191.600 L 247.852 191.600 246.926 190.730 L 246.000 189.861 246.000 172.153 L 246.000 154.445 245.111 153.823 C 244.006 153.048,222.212 152.889,220.060 153.639 L 218.800 154.078 218.800 194.025 C 218.800 233.110,218.817 233.981,219.574 234.386 C 220.046 234.639,224.139 234.801,230.074 234.802 C 240.156 234.805,242.498 235.088,243.195 236.391 C 244.098 238.077,243.714 323.886,242.800 324.800 C 242.010 325.590,241.467 325.600,198.574 325.600 C 152.481 325.600,153.981 325.668,153.242 323.549 C 152.586 321.666,152.620 238.432,153.278 236.989 C 154.214 234.933,155.035 234.800,166.752 234.800 C 176.028 234.800,177.631 234.712,178.171 234.171 C 178.734 233.608,178.800 229.414,178.800 193.994 L 178.800 154.445 177.911 153.823 C 176.570 152.883,152.368 152.889,151.429 153.829 C 150.876 154.381,150.800 156.590,150.800 172.047 L 150.800 189.636 149.818 190.618 L 148.836 191.600 105.400 191.600 L 61.964 191.600 60.982 190.618 L 60.000 189.636 60.000 146.472 C 60.000 98.540,59.831 101.607,62.508 101.077 C 64.133 100.755,148.587 100.994,149.246 101.322 M73.600 146.548 L 73.600 177.900 74.850 178.150 C 75.537 178.288,89.754 178.400,106.442 178.400 L 136.785 178.400 137.003 177.500 C 137.122 177.005,137.171 162.830,137.110 146.000 L 137.000 115.400 105.300 115.298 L 73.600 115.195 73.600 146.548 M259.843 115.833 C 259.341 117.140,259.571 177.411,260.080 177.920 C 260.898 178.738,321.137 178.600,322.311 177.777 L 323.200 177.155 323.200 146.657 C 323.200 123.471,323.085 116.045,322.720 115.680 C 321.890 114.850,260.162 115.000,259.843 115.833 M136.800 146.600 L 136.800 177.200 105.400 177.200 L 74.000 177.200 74.000 147.020 C 74.000 118.699,74.043 116.815,74.700 116.432 C 75.158 116.165,85.993 116.020,106.100 116.012 L 136.800 116.000 136.800 146.600 M321.920 116.480 C 322.285 116.845,322.400 124.187,322.400 147.082 L 322.400 177.205 291.300 177.102 L 260.200 177.000 260.090 147.400 C 260.029 131.120,260.078 117.395,260.197 116.900 L 260.415 116.000 290.928 116.000 C 314.126 116.000,321.555 116.115,321.920 116.480 M166.814 249.174 C 166.539 249.688,166.400 260.287,166.400 280.766 L 166.400 311.585 167.300 311.803 C 167.795 311.922,182.060 311.971,199.000 311.910 L 229.800 311.800 229.910 281.000 C 229.971 264.060,229.922 249.795,229.803 249.300 L 229.585 248.400 198.406 248.400 C 167.991 248.400,167.218 248.419,166.814 249.174 M229.403 250.100 C 229.522 250.595,229.571 264.590,229.510 281.200 L 229.400 311.400 198.400 311.400 L 167.400 311.400 167.297 280.844 C 167.223 258.603,167.318 250.140,167.646 249.744 C 168.020 249.294,173.377 249.200,198.641 249.200 L 229.185 249.200 229.403 250.100 " stroke="none" fill="#d8d1f4" fill-rule="evenodd"></path></g></svg>